<svg width="43" height="43" viewBox="0 0 43 43" fill="none" xmlns="http://www.w3.org/2000/svg">
<path fill-rule="evenodd" clip-rule="evenodd" d="M3.01 3.01C2.38419e-07 6.04866 0 10.9077 0 20.64V22.36C0 32.078 2.38419e-07 36.937 3.01 39.99C6.04866 43 10.9077 43 20.64 43H22.36C32.078 43 36.937 43 39.99 39.99C43 36.9514 43 32.0924 43 22.36V20.64C43 10.922 43 6.063 39.99 3.01C36.9514 2.38419e-07 32.0924 0 22.36 0H20.64C10.922 0 6.063 2.38419e-07 3.01 3.01ZM7.25266 13.0863C7.482 24.2664 13.072 30.9744 22.876 30.9744H23.4494V24.5816C27.047 24.94 29.7704 27.5774 30.8596 30.9744H35.948C35.4262 29.0441 34.5008 27.2463 33.2334 25.6996C31.966 24.1531 30.3851 22.8928 28.595 22.0016C30.1991 21.0249 31.5846 19.7275 32.6647 18.1912C33.7449 16.6548 34.4968 14.9121 34.873 13.072H30.2576C29.2544 16.6267 26.273 19.8516 23.4494 20.1526V13.0863H18.8196V25.4704C15.953 24.7536 12.341 21.285 12.1833 13.0863H7.25266Z" fill="#387ACD"/>
</svg>
