<svg width="36" height="36" viewBox="0 0 36 36" fill="none" xmlns="http://www.w3.org/2000/svg">
<path fill-rule="evenodd" clip-rule="evenodd" d="M16.9786 0.00273671C18.3575 -0.0778627 19.0472 1.64171 17.9947 2.53627C15.5546 4.61008 14.1229 7.63832 14.1229 10.9026C14.1229 16.9636 19.0363 21.8771 25.0974 21.8771C28.3617 21.8771 31.3899 20.4454 33.4638 18.0053C34.3574 16.9538 36.0753 17.6409 35.9974 19.0186C35.4601 28.5258 27.5775 36 18.0134 36C8.06489 36 0 27.9351 0 17.9866C0 8.47881 7.38919 0.624234 16.8304 0.0114174L16.8397 0.0108327L16.9786 0.00273671ZM13.329 3.58968L13.1441 3.65094C7.1559 5.6827 2.87855 11.3565 2.87855 17.9866C2.87855 26.3453 9.65466 33.1214 18.0134 33.1214C24.6827 33.1214 30.3794 28.795 32.3816 22.7582L32.4097 22.6712L32.4047 22.6744C30.2827 23.9937 27.8114 24.7324 25.2208 24.7551L25.0974 24.7557C17.4465 24.7557 11.2443 18.5535 11.2443 10.9026C11.2443 8.26719 11.9854 5.75093 13.3256 3.5953L13.329 3.58968Z" fill="black"/>
</svg>
